<svg width="17" height="17" viewBox="0 0 17 17" fill="none" xmlns="http://www.w3.org/2000/svg">
<path d="M8.49996 1.41666C6.64413 1.41666 5.13538 2.92541 5.13538 4.78124C5.13538 6.60166 6.55913 8.07499 8.41496 8.13874C8.47163 8.13166 8.52829 8.13166 8.57079 8.13874C8.58496 8.13874 8.59204 8.13874 8.60621 8.13874C8.61329 8.13874 8.61329 8.13874 8.62038 8.13874C10.4337 8.07499 11.8575 6.60166 11.8645 4.78124C11.8645 2.92541 10.3558 1.41666 8.49996 1.41666Z" fill="#747474"/>
<path d="M12.0983 10.0229C10.1221 8.70542 6.89914 8.70542 4.90872 10.0229C4.00914 10.625 3.51331 11.4396 3.51331 12.3108C3.51331 13.1821 4.00914 13.9896 4.90164 14.5846C5.89331 15.2504 7.19664 15.5833 8.49997 15.5833C9.80331 15.5833 11.1066 15.2504 12.0983 14.5846C12.9908 13.9825 13.4866 13.175 13.4866 12.2967C13.4796 11.4254 12.9908 10.6179 12.0983 10.0229Z" fill="#747474"/>
</svg>
