<svg width="17" height="17" viewBox="0 0 17 17" fill="none" xmlns="http://www.w3.org/2000/svg">
<g id="vuesax/bold/lock">
<path id="Vector" d="M8.50004 12.2896C9.1377 12.2896 9.65463 11.7727 9.65463 11.135C9.65463 10.4973 9.1377 9.98041 8.50004 9.98041C7.86238 9.98041 7.34546 10.4973 7.34546 11.135C7.34546 11.7727 7.86238 12.2896 8.50004 12.2896Z" fill="#747474"/>
<path id="Vector_2" d="M12.9483 6.75041V5.86499C12.9483 3.95249 12.4879 1.41666 8.49996 1.41666C4.51204 1.41666 4.05163 3.95249 4.05163 5.86499V6.75041C2.06829 6.99832 1.41663 8.00416 1.41663 10.4762V11.7937C1.41663 14.6979 2.30204 15.5833 5.20621 15.5833H11.7937C14.6979 15.5833 15.5833 14.6979 15.5833 11.7937V10.4762C15.5833 8.00416 14.9316 6.99832 12.9483 6.75041ZM8.49996 13.2742C7.31704 13.2742 6.36079 12.3108 6.36079 11.135C6.36079 9.95207 7.32413 8.99582 8.49996 8.99582C9.67579 8.99582 10.6391 9.95916 10.6391 11.135C10.6391 12.3179 9.68288 13.2742 8.49996 13.2742ZM5.20621 6.68666C5.14954 6.68666 5.09996 6.68666 5.04329 6.68666V5.86499C5.04329 3.78957 5.63121 2.40832 8.49996 2.40832C11.3687 2.40832 11.9566 3.78957 11.9566 5.86499V6.69374C11.9 6.69374 11.8504 6.69374 11.7937 6.69374H5.20621V6.68666Z" fill="#747474"/>
</g>
</svg>
