<svg width="17" height="15" viewBox="0 0 17 15" fill="none" xmlns="http://www.w3.org/2000/svg">
<path id="Vector" d="M3.1875 2.14286C3.1875 0.960938 4.14043 0 5.3125 0H14.875C16.0471 0 17 0.960938 17 2.14286V12.8571C17 14.0391 16.0471 15 14.875 15H2.65625C1.18867 15 0 13.8013 0 12.3214V3.21429C0 2.62165 0.474805 2.14286 1.0625 2.14286C1.6502 2.14286 2.125 2.62165 2.125 3.21429V12.3214C2.125 12.6161 2.36406 12.8571 2.65625 12.8571C2.94844 12.8571 3.1875 12.6161 3.1875 12.3214V2.14286ZM5.3125 2.94643V5.625C5.3125 6.07031 5.66777 6.42857 6.10938 6.42857H9.82812C10.2697 6.42857 10.625 6.07031 10.625 5.625V2.94643C10.625 2.50112 10.2697 2.14286 9.82812 2.14286H6.10938C5.66777 2.14286 5.3125 2.50112 5.3125 2.94643ZM12.2188 2.67857C12.2188 2.97321 12.4578 3.21429 12.75 3.21429H14.3438C14.6359 3.21429 14.875 2.97321 14.875 2.67857C14.875 2.38393 14.6359 2.14286 14.3438 2.14286H12.75C12.4578 2.14286 12.2188 2.38393 12.2188 2.67857ZM12.2188 5.89286C12.2188 6.1875 12.4578 6.42857 12.75 6.42857H14.3438C14.6359 6.42857 14.875 6.1875 14.875 5.89286C14.875 5.59821 14.6359 5.35714 14.3438 5.35714H12.75C12.4578 5.35714 12.2188 5.59821 12.2188 5.89286ZM5.3125 9.10714C5.3125 9.40179 5.55156 9.64286 5.84375 9.64286H14.3438C14.6359 9.64286 14.875 9.40179 14.875 9.10714C14.875 8.8125 14.6359 8.57143 14.3438 8.57143H5.84375C5.55156 8.57143 5.3125 8.8125 5.3125 9.10714ZM5.3125 12.3214C5.3125 12.6161 5.55156 12.8571 5.84375 12.8571H14.3438C14.6359 12.8571 14.875 12.6161 14.875 12.3214C14.875 12.0268 14.6359 11.7857 14.3438 11.7857H5.84375C5.55156 11.7857 5.3125 12.0268 5.3125 12.3214Z" fill="white"/>
</svg>
