<svg width="17" height="16" viewBox="0 0 17 16" fill="none" xmlns="http://www.w3.org/2000/svg">
<path id="Vector" d="M15.9375 0.999909C15.9375 0.596784 15.6785 0.231159 15.2801 0.0749086C14.8816 -0.0813414 14.4268 0.00615862 14.1213 0.290534L12.6736 1.65616C11.0799 3.15616 8.91836 3.99991 6.66387 3.99991H6.375H5.3125H2.125C0.95293 3.99991 0 4.89678 0 5.99991V8.99991C0 10.103 0.95293 10.9999 2.125 10.9999V14.9999C2.125 15.553 2.5998 15.9999 3.1875 15.9999H5.3125C5.9002 15.9999 6.375 15.553 6.375 14.9999V10.9999H6.66387C8.91836 10.9999 11.0799 11.8437 12.6736 13.3437L14.1213 14.7062C14.4268 14.9937 14.8816 15.078 15.2801 14.9218C15.6785 14.7655 15.9375 14.403 15.9375 13.9968V9.38741C16.5551 9.11241 17 8.37178 17 7.49991C17 6.62803 16.5551 5.88741 15.9375 5.61241V0.999909ZM13.8125 3.39678V7.49991V11.603C11.8602 9.93116 9.31348 8.99991 6.66387 8.99991H6.375V5.99991H6.66387C9.31348 5.99991 11.8602 5.06866 13.8125 3.39678Z" fill="black"/>
</svg>
