<svg width="17" height="14" viewBox="0 0 17 14" fill="none" xmlns="http://www.w3.org/2000/svg">
<path id="Vector" d="M2.125 0C0.95293 0 0 0.896875 0 2V12C0 13.1031 0.95293 14 2.125 14H14.875C16.0471 14 17 13.1031 17 12V5C17 3.89687 16.0471 3 14.875 3H2.65625C2.36406 3 2.125 2.775 2.125 2.5C2.125 2.225 2.36406 2 2.65625 2H14.875C15.4627 2 15.9375 1.55313 15.9375 1C15.9375 0.446875 15.4627 0 14.875 0H2.125ZM13.8125 7.5C14.0943 7.5 14.3645 7.60536 14.5638 7.79289C14.7631 7.98043 14.875 8.23478 14.875 8.5C14.875 8.76522 14.7631 9.01957 14.5638 9.20711C14.3645 9.39464 14.0943 9.5 13.8125 9.5C13.5307 9.5 13.2605 9.39464 13.0612 9.20711C12.8619 9.01957 12.75 8.76522 12.75 8.5C12.75 8.23478 12.8619 7.98043 13.0612 7.79289C13.2605 7.60536 13.5307 7.5 13.8125 7.5Z" fill="black"/>
</svg>
