<svg width="17" height="15" viewBox="0 0 17 15" fill="none" xmlns="http://www.w3.org/2000/svg">
<rect width="17" height="15" fill="black"/>
<g id="main profile" clip-path="url(#clip0_0_1)">
<rect width="1280" height="832" transform="translate(-42 -288)" fill="white"/>
<path id="Vector" d="M3.1875 2.125C3.1875 0.95293 4.14043 0 5.3125 0H14.875C16.0471 0 17 0.95293 17 2.125V12.75C17 13.9221 16.0471 14.875 14.875 14.875H2.65625C1.18867 14.875 0 13.6863 0 12.2188V3.1875C0 2.5998 0.474805 2.125 1.0625 2.125C1.6502 2.125 2.125 2.5998 2.125 3.1875V12.2188C2.125 12.5109 2.36406 12.75 2.65625 12.75C2.94844 12.75 3.1875 12.5109 3.1875 12.2188V2.125ZM5.3125 2.92188V5.57812C5.3125 6.01973 5.66777 6.375 6.10938 6.375H9.82812C10.2697 6.375 10.625 6.01973 10.625 5.57812V2.92188C10.625 2.48027 10.2697 2.125 9.82812 2.125H6.10938C5.66777 2.125 5.3125 2.48027 5.3125 2.92188ZM12.2188 2.65625C12.2188 2.94844 12.4578 3.1875 12.75 3.1875H14.3438C14.6359 3.1875 14.875 2.94844 14.875 2.65625C14.875 2.36406 14.6359 2.125 14.3438 2.125H12.75C12.4578 2.125 12.2188 2.36406 12.2188 2.65625ZM12.2188 5.84375C12.2188 6.13594 12.4578 6.375 12.75 6.375H14.3438C14.6359 6.375 14.875 6.13594 14.875 5.84375C14.875 5.55156 14.6359 5.3125 14.3438 5.3125H12.75C12.4578 5.3125 12.2188 5.55156 12.2188 5.84375ZM5.3125 9.03125C5.3125 9.32344 5.55156 9.5625 5.84375 9.5625H14.3438C14.6359 9.5625 14.875 9.32344 14.875 9.03125C14.875 8.73906 14.6359 8.5 14.3438 8.5H5.84375C5.55156 8.5 5.3125 8.73906 5.3125 9.03125ZM5.3125 12.2188C5.3125 12.5109 5.55156 12.75 5.84375 12.75H14.3438C14.6359 12.75 14.875 12.5109 14.875 12.2188C14.875 11.9266 14.6359 11.6875 14.3438 11.6875H5.84375C5.55156 11.6875 5.3125 11.9266 5.3125 12.2188Z" fill="black"/>
</g>
<defs>
<clipPath id="clip0_0_1">
<rect width="1280" height="832" fill="white" transform="translate(-42 -288)"/>
</clipPath>
</defs>
</svg>
