<svg width="17" height="15" viewBox="0 0 17 15" fill="none" xmlns="http://www.w3.org/2000/svg">
<rect width="17" height="15" fill="black"/>
<g id="main profile" clip-path="url(#clip0_0_1)">
<rect width="1280" height="832" transform="translate(-42 -238)" fill="white"/>
<path id="Vector" d="M2.125 0C0.95293 0 0 0.95293 0 2.125V12.75C0 13.9221 0.95293 14.875 2.125 14.875H14.875C16.0471 14.875 17 13.9221 17 12.75V5.3125C17 4.14043 16.0471 3.1875 14.875 3.1875H2.65625C2.36406 3.1875 2.125 2.94844 2.125 2.65625C2.125 2.36406 2.36406 2.125 2.65625 2.125H14.875C15.4627 2.125 15.9375 1.6502 15.9375 1.0625C15.9375 0.474805 15.4627 0 14.875 0H2.125ZM13.8125 7.96875C14.0943 7.96875 14.3645 8.08069 14.5638 8.27995C14.7631 8.47921 14.875 8.74946 14.875 9.03125C14.875 9.31304 14.7631 9.58329 14.5638 9.78255C14.3645 9.98181 14.0943 10.0938 13.8125 10.0938C13.5307 10.0938 13.2605 9.98181 13.0612 9.78255C12.8619 9.58329 12.75 9.31304 12.75 9.03125C12.75 8.74946 12.8619 8.47921 13.0612 8.27995C13.2605 8.08069 13.5307 7.96875 13.8125 7.96875Z" fill="black"/>
</g>
<defs>
<clipPath id="clip0_0_1">
<rect width="1280" height="832" fill="white" transform="translate(-42 -238)"/>
</clipPath>
</defs>
</svg>
