<svg width="17" height="17" viewBox="0 0 17 17" fill="none" xmlns="http://www.w3.org/2000/svg">
<rect width="17" height="17" fill="black"/>
<g id="main profile" clip-path="url(#clip0_0_1)">
<rect width="1280" height="832" transform="translate(-44 -374)" fill="white"/>
<path id="Vector" d="M15.9786 5.53164C16.0848 5.82051 15.9952 6.14258 15.7661 6.34844L14.3284 7.65664C14.3649 7.93223 14.3848 8.21445 14.3848 8.5C14.3848 8.78555 14.3649 9.06777 14.3284 9.34336L15.7661 10.6516C15.9952 10.8574 16.0848 11.1795 15.9786 11.4684C15.8325 11.8635 15.6565 12.242 15.454 12.6072L15.2979 12.8762C15.0788 13.2414 14.8331 13.5867 14.5641 13.9121C14.3682 14.1512 14.0429 14.2309 13.7507 14.1379L11.9013 13.5502C11.4563 13.8922 10.9649 14.1777 10.4403 14.3936L10.0253 16.2895C9.95887 16.5916 9.72645 16.8307 9.42098 16.8805C8.96278 16.9568 8.49129 16.9967 8.00985 16.9967C7.5284 16.9967 7.05692 16.9568 6.59871 16.8805C6.29325 16.8307 6.06082 16.5916 5.99442 16.2895L5.57938 14.3936C5.05477 14.1777 4.56336 13.8922 4.11844 13.5502L2.27235 14.1412C1.98016 14.2342 1.65477 14.1512 1.45887 13.9154C1.18993 13.59 0.944222 13.2447 0.725082 12.8795L0.569027 12.6105C0.366488 12.2453 0.190511 11.8668 0.0444177 11.4717C-0.0618323 11.1828 0.0278161 10.8607 0.256918 10.6549L1.69461 9.34668C1.65809 9.06777 1.63817 8.78555 1.63817 8.5C1.63817 8.21445 1.65809 7.93223 1.69461 7.65664L0.256918 6.34844C0.0278161 6.14258 -0.0618323 5.82051 0.0444177 5.53164C0.190511 5.13652 0.366488 4.75801 0.569027 4.39277L0.725082 4.12383C0.944222 3.75859 1.18993 3.41328 1.45887 3.08789C1.65477 2.84883 1.98016 2.76914 2.27235 2.86211L4.12176 3.4498C4.56668 3.10781 5.05809 2.82227 5.5827 2.60645L5.99774 0.710547C6.06414 0.408398 6.29657 0.169336 6.60203 0.119531C7.06024 0.0398437 7.53172 0 8.01317 0C8.49461 0 8.9661 0.0398438 9.4243 0.116211C9.72977 0.166016 9.96219 0.405078 10.0286 0.707227L10.4436 2.60313C10.9682 2.81895 11.4597 3.10449 11.9046 3.44648L13.754 2.85879C14.0462 2.76582 14.3716 2.84883 14.5675 3.08457C14.8364 3.40996 15.0821 3.75527 15.3013 4.12051L15.4573 4.38945C15.6598 4.75469 15.8358 5.1332 15.9819 5.52832L15.9786 5.53164ZM8.01317 11.1562C8.71765 11.1562 9.39328 10.8764 9.89142 10.3783C10.3896 9.88011 10.6694 9.20448 10.6694 8.5C10.6694 7.79552 10.3896 7.11989 9.89142 6.62175C9.39328 6.1236 8.71765 5.84375 8.01317 5.84375C7.30869 5.84375 6.63306 6.1236 6.13492 6.62175C5.63677 7.11989 5.35692 7.79552 5.35692 8.5C5.35692 9.20448 5.63677 9.88011 6.13492 10.3783C6.63306 10.8764 7.30869 11.1562 8.01317 11.1562Z" fill="black"/>
</g>
<defs>
<clipPath id="clip0_0_1">
<rect width="1280" height="832" fill="white" transform="translate(-44 -374)"/>
</clipPath>
</defs>
</svg>
